HIERARCHY
ROOT pelvis
{
    OFFSET 0.0 93.64073944091797 0.0
    CHANNELS 6 Xposition Yposition Zposition Zrotation Yrotation Xrotation

    JOINT left_hip
    {
        OFFSET -5.923865795135498 -4.9820404052734375 -0.5160064697265625
        CHANNELS 3 Zrotation Yrotation Xrotation

        JOINT left_knee
        {
            OFFSET -6.146185398101807 -40.54372024536133 -5.271518707275391
            CHANNELS 3 Zrotation Yrotation Xrotation

            JOINT left_ankle
            {
                OFFSET 1.0999670028686523 -42.46221160888672 -3.445535659790039
                CHANNELS 3 Zrotation Yrotation Xrotation

                JOINT left_foot
                {
                    OFFSET -5.945172309875488 -4.981842517852783 11.75620174407959
                    CHANNELS 3 Zrotation Yrotation Xrotation

                    End Site
                    {
                        OFFSET 0 0 0
                    }
                }
            }
        }
    }

    JOINT right_hip
    {
        OFFSET 6.179832935333252 -5.0594024658203125 -1.4839138984680176
        CHANNELS 3 Zrotation Yrotation Xrotation

        JOINT right_knee
        {
            OFFSET 6.999098300933838 -40.76092529296875 -4.331271648406982
            CHANNELS 3 Zrotation Yrotation Xrotation

            JOINT right_ankle
            {
                OFFSET -1.4563846588134766 -41.78179931640625 -4.383964538574219
                CHANNELS 3 Zrotation Yrotation Xrotation

                JOINT right_foot
                {
                    OFFSET 5.6139421463012695 -5.553147315979004 12.790332794189453
                    CHANNELS 3 Zrotation Yrotation Xrotation

                    End Site
                    {
                        OFFSET 0 0 0
                    }
                }
            }
        }
    }

    JOINT spine1
    {
        OFFSET 0.4437461495399475 16.73809814453125 -4.683197498321533
        CHANNELS 3 Zrotation Yrotation Xrotation

        JOINT spine2
        {
            OFFSET 0.9789926409721375 12.172080993652344 2.8069684505462646
            CHANNELS 3 Zrotation Yrotation Xrotation

            JOINT spine3
            {
                OFFSET -0.15495991706848145 4.650520324707031 0.6406077146530151
                CHANNELS 3 Zrotation Yrotation Xrotation

                JOINT left_collar
                {
                    OFFSET -8.252729415893555 9.115943908691406 -1.4277211427688599
                    CHANNELS 3 Zrotation Yrotation Xrotation

                    JOINT left_shoulder
                    {
                        OFFSET -11.926380157470703 5.76409912109375 -2.692793369293213
                        CHANNELS 3 Zrotation Yrotation Xrotation

                        JOINT left_elbow
                        {
                            OFFSET -25.01034927368164 -0.9507293701171875 -0.7720041275024414
                            CHANNELS 3 Zrotation Yrotation Xrotation

                            JOINT left_wrist
                            {
                                OFFSET -26.750202178955078 6.2010040283203125 0.09749889373779297
                                CHANNELS 3 Zrotation Yrotation Xrotation

                                End Site
                                {
                                    OFFSET 0 0 0
                                }
                            }
                        }
                    }
                }

                JOINT right_collar
                {
                    OFFSET 7.516000270843506 9.857826232910156 -1.23031485080719
                    CHANNELS 3 Zrotation Yrotation Xrotation

                    JOINT right_shoulder
                    {
                        OFFSET 10.759876251220703 5.242095947265625 -4.059486389160156
                        CHANNELS 3 Zrotation Yrotation Xrotation

                        JOINT right_elbow
                        {
                            OFFSET 25.53045654296875 0.536529541015625 -1.25703763961792
                            CHANNELS 3 Zrotation Yrotation Xrotation

                            JOINT right_wrist
                            {
                                OFFSET 27.510330200195312 5.0978240966796875 -1.1167974472045898
                                CHANNELS 3 Zrotation Yrotation Xrotation

                                End Site
                                {
                                    OFFSET 0 0 0
                                }
                            }
                        }
                    }
                }

                JOINT neck
                {
                    OFFSET -1.505141019821167 21.009071350097656 -2.203017234802246
                    CHANNELS 3 Zrotation Yrotation Xrotation

                    JOINT head
                    {
                        OFFSET 1.0093531608581543 10.223403930664062 7.858963966369629
                        CHANNELS 3 Zrotation Yrotation Xrotation

                        End Site
                        {
                            OFFSET 0 0 0
                        }
                    }
                }
            }
        }
    }

}

MOTION
Frames: 9
Frame Time: 0.050000
0.000000 93.640739 0.000000 0.000000 0.000000 0.000000 0.000000 0.000000 0.000000 0.000000 0.000000 0.000000 0.000000 0.000000 0.000000 0.000000 0.000000 0.000000 0.000000 0.000000 0.000000 0.000000 0.000000 0.000000 0.000000 0.000000 0.000000 0.000000 0.000000 0.000000 0.000000 0.000000 0.000000 0.000000 0.000000 0.000000 0.000000 0.000000 0.000000 0.000000 0.000000 0.000000 0.000000 0.000000 0.000000 0.000000 0.000000 0.000000 0.000000 0.000000 0.000000 0.000000 0.000000 0.000000 0.000000 0.000000 0.000000 0.000000 0.000000 0.000000 0.000000 0.000000 0.000000 0.000000 0.000000 0.000000 0.000000 0.000000 0.000000
0.026797 93.627617 -0.045681 0.000000 0.000000 -0.000000 -0.015563 -0.021503 -0.023864 0.083313 0.084970 0.004983 0.390615 0.005681 -0.199409 0.000000 0.000000 -0.000000 0.103766 0.129797 -0.076271 -0.155911 -0.152702 0.099336 -0.467778 -0.038518 -0.148319 0.000000 0.000000 -0.000000 0.027865 -0.022320 -0.000766 -0.105266 0.084114 0.273907 0.000000 0.000000 -0.000000 0.555255 -0.371451 -0.577257 0.627162 0.599898 -0.604323 -0.205531 -0.549635 0.380522 0.000000 0.000000 -0.000000 -0.606961 0.409341 -0.746400 -0.510001 -0.001917 -0.648237 0.165071 0.463959 0.192889 0.000000 0.000000 -0.000000 0.155406 -0.062741 0.143686 0.000000 0.000000 -0.000000
0.052051 93.602844 -0.088504 0.000000 0.000000 -0.000000 -0.102134 -0.126537 -0.061052 0.210551 0.210085 0.031074 1.172048 0.118695 -0.434755 0.000000 0.000000 -0.000000 0.182437 0.220442 -0.089298 -0.264179 -0.269725 0.081785 -0.710680 -0.121003 -0.212608 0.000000 0.000000 -0.000000 0.010919 -0.001650 0.087809 -0.123008 0.102840 0.427473 0.000000 0.000000 -0.000000 1.548828 -1.141493 -1.569519 1.890709 1.250940 -1.759587 -0.807231 -1.518160 1.105432 0.000000 0.000000 -0.000000 -1.508686 0.767441 -1.990703 -1.696009 -0.275008 -2.168877 0.676023 1.190192 0.807631 0.000000 0.000000 -0.000000 -0.087091 0.047690 0.045590 0.000000 0.000000 -0.000000
0.074000 93.572220 -0.131267 0.000000 0.000000 -0.000000 -0.206069 -0.253665 -0.114110 0.309680 0.300284 0.089765 2.190147 0.281750 -0.676286 0.000000 0.000000 -0.000000 0.248620 0.295488 -0.093264 -0.355470 -0.370155 0.050347 -0.806491 -0.212447 -0.212843 0.000000 0.000000 -0.000000 -0.071921 0.073172 0.198331 -0.086377 0.075125 0.515101 0.000000 0.000000 -0.000000 2.795284 -2.071603 -2.851266 3.744994 2.104769 -3.433935 -1.506176 -2.869823 1.897938 0.000000 0.000000 -0.000000 -2.603216 1.147228 -3.548899 -3.432035 -0.765058 -4.318480 1.364541 2.135077 1.588859 0.000000 0.000000 -0.000000 -0.396500 0.176734 -0.212185 0.000000 0.000000 -0.000000
0.090745 93.535141 -0.172819 0.000000 0.000000 -0.000000 -0.301666 -0.370393 -0.163135 0.381883 0.362840 0.149310 3.072103 0.422219 -0.868764 0.000000 0.000000 -0.000000 0.305352 0.360643 -0.101790 -0.456165 -0.480081 0.013617 -0.737128 -0.268506 -0.204392 0.000000 0.000000 -0.000000 -0.163808 0.155703 0.319233 -0.024819 0.029365 0.527459 0.000000 0.000000 -0.000000 4.153874 -3.035008 -4.299271 5.922122 3.127289 -5.347388 -2.250321 -4.439597 2.657323 0.000000 0.000000 -0.000000 -3.813616 1.563165 -5.301403 -5.451832 -1.412091 -6.749292 2.161158 3.204884 2.408034 0.000000 0.000000 -0.000000 -0.650347 0.274758 -0.522080 0.000000 0.000000 -0.000000
0.101536 93.487534 -0.210908 0.000000 0.000000 -0.000000 -0.398703 -0.485954 -0.194047 0.440360 0.414012 0.214459 3.784286 0.503734 -1.013140 0.000000 0.000000 -0.000000 0.368118 0.435122 -0.126039 -0.567485 -0.598247 -0.035492 -0.642877 -0.319968 -0.219335 0.000000 0.000000 -0.000000 -0.251359 0.233275 0.424675 0.009213 0.006318 0.528877 0.000000 0.000000 -0.000000 5.689247 -4.096773 -5.984086 8.579337 4.420619 -7.587325 -3.139061 -6.343578 3.436636 0.000000 0.000000 -0.000000 -5.214222 2.123482 -7.330019 -7.873936 -2.214480 -9.529006 3.121079 4.424220 3.261946 0.000000 0.000000 -0.000000 -0.802236 0.317404 -0.892688 0.000000 0.000000 -0.000000
0.107322 93.430923 -0.241799 0.000000 0.000000 -0.000000 -0.493708 -0.597894 -0.216842 0.486627 0.453806 0.294051 4.390751 0.496455 -1.159754 0.000000 0.000000 -0.000000 0.423962 0.502470 -0.154663 -0.678441 -0.714758 -0.085974 -0.432120 -0.350645 -0.217677 0.000000 0.000000 -0.000000 -0.337880 0.307552 0.500829 0.010821 0.008508 0.507528 0.000000 0.000000 -0.000000 7.256659 -5.168833 -7.750718 11.537254 5.870078 -9.963894 -3.976926 -8.377912 3.980069 0.000000 0.000000 -0.000000 -6.701926 2.801687 -9.493969 -10.497810 -3.193661 -12.373010 4.046563 5.744336 3.928290 0.000000 0.000000 -0.000000 -0.846350 0.300223 -1.329779 0.000000 0.000000 -0.000000
0.109936 93.368134 -0.262988 0.000000 0.000000 -0.000000 -0.574417 -0.694545 -0.248035 0.532971 0.493218 0.398219 4.892453 0.410295 -1.318847 0.000000 0.000000 -0.000000 0.479739 0.568836 -0.178139 -0.783916 -0.825743 -0.119089 -0.239152 -0.370507 -0.207372 0.000000 0.000000 -0.000000 -0.416538 0.371031 0.517657 -0.043020 0.050713 0.531166 0.000000 0.000000 -0.000000 8.837380 -6.297749 -9.552779 14.838403 7.520071 -12.450205 -4.687840 -10.511778 4.166986 0.000000 0.000000 -0.000000 -8.234114 3.570602 -11.745375 -13.345446 -4.427474 -15.246835 4.885480 7.210702 4.334033 0.000000 0.000000 -0.000000 -0.870806 0.266142 -1.844577 0.000000 0.000000 -0.000000
0.108702 93.305641 -0.272185 0.000000 0.000000 -0.000000 -0.637705 -0.772813 -0.291130 0.587822 0.540977 0.535468 5.260673 0.262514 -1.467987 0.000000 0.000000 -0.000000 0.529493 0.630221 -0.213049 -0.891204 -0.935711 -0.112777 -0.152822 -0.389565 -0.215509 0.000000 0.000000 -0.000000 -0.502507 0.436793 0.487016 -0.101272 0.089774 0.596223 0.000000 0.000000 -0.000000 10.480346 -7.500538 -11.461160 18.660417 9.483647 -15.154657 -5.299961 -12.825426 3.954915 0.000000 0.000000 -0.000000 -9.847301 4.450998 -14.148548 -16.678085 -6.054283 -18.330206 5.665995 8.942529 4.419260 0.000000 0.000000 -0.000000 -0.866006 0.209118 -2.444276 0.000000 0.000000 -0.000000
